ffmpeg started on 2025-07-16 at 16:04:18
Report written to "D:\Convert\FFMetrics\reports\ssim_report-6.txt"
Log level: 32
Command line:
ffmpeg -hide_banner -nostdin -i "G:\\\xc0\xed\xe8\xec\xe5\\Shiza\\\xcb\xe5\xe3\xe5\xed\xe4\xe0 \xee \xc3\xf0\xe0\xed\xea\xf0\xe5\xf1\xf2\xe5\\[SHIZA Project] Grancrest Senki TV [06] [nDrOiDze & Lianna]_HEVC.mkv" -i "G:\\\xc0\xed\xe8\xec\xe5\\Shiza\\\xcb\xe5\xe3\xe5\xed\xe4\xe0 \xee \xc3\xf0\xe0\xed\xea\xf0\xe5\xf1\xf2\xe5\\[SHIZA Project] Grancrest Senki TV [06] [nDrOiDze & Lianna].mkv" -lavfi "[0:v]settb=AVTB,setpts=PTS-STARTPTS,format=pix_fmts=yuv420p10,fps=24000/1001,scale=1280:720:flags=bicubic[main];[1:v]settb=AVTB,setpts=PTS-STARTPTS,format=pix_fmts=yuv420p,fps=24000/1001,scale=1280:720:flags=bicubic[ref];[main][ref]ssim=eof_action=endall:stats_file='D\\:/Convert/FFMetrics/logs/ssim_logfile-6.txt'" -f null -
Input #0, matroska,webm, from 'G:\Аниме\Shiza\Легенда о Гранкресте\[SHIZA Project] Grancrest Senki TV [06] [nDrOiDze & Lianna]_HEVC.mkv':
  Metadata:
    ENCODER         : Lavf61.7.100
  Duration: 00:23:42.06, start: -0.021000, bitrate: 704 kb/s
  Stream #0:0(jpn): Video: hevc (Main 10), yuv420p10le(tv, bt709, progressive), 1280x720 [SAR 1:1 DAR 16:9], 23.81 fps, 23.81 tbr, 1k tbn (default)
      Metadata:
        title           : [SHIZA Project] Grancrest Senki TV [WEBRip]
        ENCODER         : Lavc61.19.100 libx265
        BPS             : 506838
        DURATION        : 00:23:40.020000000
        NUMBER_OF_FRAMES: 34047
        NUMBER_OF_BYTES : 89965092
        _STATISTICS_WRITING_APP: mkvpropedit v66.0.0 ('Josie') 64-bit
        _STATISTICS_WRITING_DATE_UTC: 2025-07-14 08:41:02
        _STATISTICS_TAGS: BPS DURATION NUMBER_OF_FRAMES NUMBER_OF_BYTES
  Stream #0:1(rus): Audio: aac (LC), 48000 Hz, stereo, fltp (default)
      Metadata:
        title           : nDrOiDze & Lianna
        ENCODER         : Lavc61.19.100 aac
        BPS             : 194865
        DURATION        : 00:23:42.037000000
        NUMBER_OF_FRAMES: 66659
        NUMBER_OF_BYTES : 34638279
        _STATISTICS_WRITING_APP: mkvpropedit v66.0.0 ('Josie') 64-bit
        _STATISTICS_WRITING_DATE_UTC: 2025-07-14 08:41:02
        _STATISTICS_TAGS: BPS DURATION NUMBER_OF_FRAMES NUMBER_OF_BYTES
Input #1, matroska,webm, from 'G:\Аниме\Shiza\Легенда о Гранкресте\[SHIZA Project] Grancrest Senki TV [06] [nDrOiDze & Lianna].mkv':
  Metadata:
    encoder         : libebml v1.3.4 + libmatroska v1.4.5
    creation_time   : 2018-02-12T22:13:56.000000Z
  Duration: 00:23:42.04, start: 0.000000, bitrate: 1971 kb/s
  Stream #1:0(jpn): Video: h264 (High), yuv420p(progressive), 1280x720 [SAR 1:1 DAR 16:9], 23.81 fps, 23.81 tbr, 1k tbn (default)
      Metadata:
        title           : [SHIZA Project] Grancrest Senki TV [WEBRip]
        BPS             : 1775286
        BPS-eng         : 1775286
        DURATION        : 00:23:40.003000000
        DURATION-eng    : 00:23:40.003000000
        NUMBER_OF_FRAMES: 34047
        NUMBER_OF_FRAMES-eng: 34047
        NUMBER_OF_BYTES : 315114046
        NUMBER_OF_BYTES-eng: 315114046
        _STATISTICS_WRITING_APP: mkvmerge v10.0.0 ('To Drown In You') 64bit
        _STATISTICS_WRITING_APP-eng: mkvmerge v10.0.0 ('To Drown In You') 64bit
        _STATISTICS_WRITING_DATE_UTC: 2018-02-12 22:13:56
        _STATISTICS_WRITING_DATE_UTC-eng: 2018-02-12 22:13:56
        _STATISTICS_TAGS: BPS DURATION NUMBER_OF_FRAMES NUMBER_OF_BYTES
        _STATISTICS_TAGS-eng: BPS DURATION NUMBER_OF_FRAMES NUMBER_OF_BYTES
  Stream #1:1(rus): Audio: aac (LC), 48000 Hz, stereo, fltp (default)
      Metadata:
        title           : nDrOiDze & Lianna
        BPS             : 194422
        BPS-eng         : 194422
        DURATION        : 00:23:42.037000000
        DURATION-eng    : 00:23:42.037000000
        NUMBER_OF_FRAMES: 66658
        NUMBER_OF_FRAMES-eng: 66658
        NUMBER_OF_BYTES : 34559572
        NUMBER_OF_BYTES-eng: 34559572
        _STATISTICS_WRITING_APP: mkvmerge v10.0.0 ('To Drown In You') 64bit
        _STATISTICS_WRITING_APP-eng: mkvmerge v10.0.0 ('To Drown In You') 64bit
        _STATISTICS_WRITING_DATE_UTC: 2018-02-12 22:13:56
        _STATISTICS_WRITING_DATE_UTC-eng: 2018-02-12 22:13:56
        _STATISTICS_TAGS: BPS DURATION NUMBER_OF_FRAMES NUMBER_OF_BYTES
        _STATISTICS_TAGS-eng: BPS DURATION NUMBER_OF_FRAMES NUMBER_OF_BYTES
  Stream #1:2: Attachment: ttf
      Metadata:
        filename        : OpenSans-Semibold.ttf
        mimetype        : application/x-truetype-font
Stream mapping:
  Stream #0:0 (hevc) -> settb:default
  Stream #1:0 (h264) -> settb:default
  ssim:default -> Stream #0:0 (wrapped_avframe)
  Stream #0:1 -> #0:1 (aac (native) -> pcm_s16le (native))
[swscaler @ 00000153770f9480] No accelerated colorspace conversion found from yuv420p to bgr48le.
[swscaler @ 0000015377185900] No accelerated colorspace conversion found from yuv420p to bgr48le.
[swscaler @ 00000153772a2800] No accelerated colorspace conversion found from yuv420p to bgr48le.
[swscaler @ 0000015377415e40] No accelerated colorspace conversion found from yuv420p to bgr48le.
[swscaler @ 0000015377460900] No accelerated colorspace conversion found from yuv420p to bgr48le.
[swscaler @ 0000015377594c80] No accelerated colorspace conversion found from yuv420p to bgr48le.
[swscaler @ 0000015377758ac0] No accelerated colorspace conversion found from yuv420p to bgr48le.
[swscaler @ 00000153777edb40] No accelerated colorspace conversion found from yuv420p to bgr48le.
[swscaler @ 000001537799f040] No accelerated colorspace conversion found from yuv420p to bgr48le.
[swscaler @ 0000015377aa0b40] No accelerated colorspace conversion found from yuv420p to bgr48le.
[swscaler @ 0000015377b71040] No accelerated colorspace conversion found from yuv420p to bgr48le.
[swscaler @ 0000015377bdb040] No accelerated colorspace conversion found from yuv420p to bgr48le.
[swscaler @ 0000015377bf6600] No accelerated colorspace conversion found from yuv420p to bgr48le.
[swscaler @ 000001537bcc5040] No accelerated colorspace conversion found from yuv420p to bgr48le.
[swscaler @ 000001537bd24040] No accelerated colorspace conversion found from yuv420p to bgr48le.
[swscaler @ 000001537bd9c040] No accelerated colorspace conversion found from yuv420p to bgr48le.
Output #0, null, to 'pipe:':
  Metadata:
    encoder         : Lavf61.7.100
  Stream #0:0: Video: wrapped_avframe, yuv420p10le(tv, bt709, progressive), 1280x720 [SAR 1:1 DAR 16:9], q=2-31, 200 kb/s, 23.98 fps, 23.98 tbn
      Metadata:
        encoder         : Lavc61.19.100 wrapped_avframe
  Stream #0:1(rus): Audio: pcm_s16le, 48000 Hz, stereo, s16, 1536 kb/s (default)
      Metadata:
        title           : nDrOiDze & Lianna
        _STATISTICS_TAGS: BPS DURATION NUMBER_OF_FRAMES NUMBER_OF_BYTES
        BPS             : 194865
        DURATION        : 00:23:42.037000000
        NUMBER_OF_FRAMES: 66659
        NUMBER_OF_BYTES : 34638279
        _STATISTICS_WRITING_APP: mkvpropedit v66.0.0 ('Josie') 64-bit
        _STATISTICS_WRITING_DATE_UTC: 2025-07-14 08:41:02
        encoder         : Lavc61.19.100 pcm_s16le
frame=   83 fps=0.0 q=-0.0 size=N/A time=00:00:03.46 bitrate=N/A speed=6.69x    frame=  184 fps=177 q=-0.0 size=N/A time=00:00:07.67 bitrate=N/A speed=7.39x    frame=  284 fps=183 q=-0.0 size=N/A time=00:00:11.84 bitrate=N/A speed=7.65x    frame=  388 fps=188 q=-0.0 size=N/A time=00:00:16.18 bitrate=N/A speed=7.82x    frame=  486 fps=189 q=-0.0 size=N/A time=00:00:20.27 bitrate=N/A speed=7.87x    frame=  587 fps=190 q=-0.0 size=N/A time=00:00:24.48 bitrate=N/A speed=7.91x    frame=  680 fps=188 q=-0.0 size=N/A time=00:00:28.36 bitrate=N/A speed=7.85x    frame=  783 fps=190 q=-0.0 size=N/A time=00:00:32.65 bitrate=N/A speed=7.92x    frame=  885 fps=191 q=-0.0 size=N/A time=00:00:36.91 bitrate=N/A speed=7.95x    frame=  981 fps=190 q=-0.0 size=N/A time=00:00:40.91 bitrate=N/A speed=7.94x    frame= 1083 fps=191 q=-0.0 size=N/A time=00:00:45.17 bitrate=N/A speed=7.96x    frame= 1186 fps=192 q=-0.0 size=N/A time=00:00:49.46 bitrate=N/A speed=7.99x    frame= 1283 fps=191 q=-0.0 size=N/A time=00:00:53.51 bitrate=N/A speed=7.98x    frame= 1380 fps=191 q=-0.0 size=N/A time=00:00:57.55 bitrate=N/A speed=7.96x    frame= 1479 fps=191 q=-0.0 size=N/A time=00:01:01.68 bitrate=N/A speed=7.97x    frame= 1583 fps=192 q=-0.0 size=N/A time=00:01:06.02 bitrate=N/A speed=7.99x    frame= 1683 fps=192 q=-0.0 size=N/A time=00:01:10.19 bitrate=N/A speed=8.01x    frame= 1773 fps=191 q=-0.0 size=N/A time=00:01:13.94 bitrate=N/A speed=7.96x    frame= 1882 fps=192 q=-0.0 size=N/A time=00:01:18.49 bitrate=N/A speed=8.01x    frame= 1982 fps=192 q=-0.0 size=N/A time=00:01:22.66 bitrate=N/A speed=8.01x    frame= 2080 fps=192 q=-0.0 size=N/A time=00:01:26.75 bitrate=N/A speed=8.01x    frame= 2178 fps=192 q=-0.0 size=N/A time=00:01:30.84 bitrate=N/A speed=   8x    frame= 2278 fps=192 q=-0.0 size=N/A time=00:01:35.01 bitrate=N/A speed=8.01x    frame= 2379 fps=192 q=-0.0 size=N/A time=00:01:39.22 bitrate=N/A speed=8.01x    frame= 2479 fps=192 q=-0.0 size=N/A time=00:01:43.39 bitrate=N/A speed=8.02x    frame= 2574 fps=192 q=-0.0 size=N/A time=00:01:47.35 bitrate=N/A speed=8.01x    frame= 2679 fps=192 q=-0.0 size=N/A time=00:01:51.73 bitrate=N/A speed=8.03x    frame= 2781 fps=193 q=-0.0 size=N/A time=00:01:55.99 bitrate=N/A speed=8.03x    frame= 2883 fps=193 q=-0.0 size=N/A time=00:02:00.24 bitrate=N/A speed=8.04x    frame= 2984 fps=193 q=-0.0 size=N/A time=00:02:04.45 bitrate=N/A speed=8.04x    frame= 3087 fps=193 q=-0.0 size=N/A time=00:02:08.75 bitrate=N/A speed=8.05x    frame= 3185 fps=193 q=-0.0 size=N/A time=00:02:12.84 bitrate=N/A speed=8.05x    frame= 3283 fps=193 q=-0.0 size=N/A time=00:02:16.92 bitrate=N/A speed=8.05x    frame= 3381 fps=193 q=-0.0 size=N/A time=00:02:21.01 bitrate=N/A speed=8.04x    frame= 3478 fps=193 q=-0.0 size=N/A time=00:02:25.06 bitrate=N/A speed=8.04x    frame= 3584 fps=193 q=-0.0 size=N/A time=00:02:29.48 bitrate=N/A speed=8.05x    frame= 3683 fps=193 q=-0.0 size=N/A time=00:02:33.61 bitrate=N/A speed=8.05x    frame= 3784 fps=193 q=-0.0 size=N/A time=00:02:37.82 bitrate=N/A speed=8.06x    frame= 3886 fps=193 q=-0.0 size=N/A time=00:02:42.07 bitrate=N/A speed=8.06x    frame= 3985 fps=193 q=-0.0 size=N/A time=00:02:46.20 bitrate=N/A speed=8.06x    frame= 4086 fps=193 q=-0.0 size=N/A time=00:02:50.42 bitrate=N/A speed=8.06x    frame= 4178 fps=193 q=-0.0 size=N/A time=00:02:54.25 bitrate=N/A speed=8.04x    frame= 4289 fps=193 q=-0.0 size=N/A time=00:02:58.88 bitrate=N/A speed=8.07x    frame= 4387 fps=193 q=-0.0 size=N/A time=00:03:02.97 bitrate=N/A speed=8.06x    frame= 4479 fps=193 q=-0.0 size=N/A time=00:03:06.81 bitrate=N/A speed=8.05x    frame= 4590 fps=193 q=-0.0 size=N/A time=00:03:11.44 bitrate=N/A speed=8.07x    frame= 4691 fps=194 q=-0.0 size=N/A time=00:03:15.65 bitrate=N/A speed=8.07x    frame= 4794 fps=194 q=-0.0 size=N/A time=00:03:19.94 bitrate=N/A speed=8.08x    frame= 4886 fps=193 q=-0.0 size=N/A time=00:03:23.78 bitrate=N/A speed=8.07x    frame= 4997 fps=194 q=-0.0 size=N/A time=00:03:28.41 bitrate=N/A speed=8.08x    frame= 5099 fps=194 q=-0.0 size=N/A time=00:03:32.67 bitrate=N/A speed=8.09x    frame= 5202 fps=194 q=-0.0 size=N/A time=00:03:36.96 bitrate=N/A speed=8.09x    frame= 5289 fps=194 q=-0.0 size=N/A time=00:03:40.59 bitrate=N/A speed=8.07x    frame= 5407 fps=194 q=-0.0 size=N/A time=00:03:45.51 bitrate=N/A speed= 8.1x    frame= 5504 fps=194 q=-0.0 size=N/A time=00:03:49.56 bitrate=N/A speed=8.09x    frame= 5608 fps=194 q=-0.0 size=N/A time=00:03:53.90 bitrate=N/A speed= 8.1x    frame= 5707 fps=194 q=-0.0 size=N/A time=00:03:58.02 bitrate=N/A speed= 8.1x    frame= 5807 fps=194 q=-0.0 size=N/A time=00:04:02.20 bitrate=N/A speed= 8.1x    frame= 5908 fps=194 q=-0.0 size=N/A time=00:04:06.41 bitrate=N/A speed= 8.1x    frame= 6008 fps=194 q=-0.0 size=N/A time=00:04:10.58 bitrate=N/A speed= 8.1x    frame= 6107 fps=194 q=-0.0 size=N/A time=00:04:14.71 bitrate=N/A speed= 8.1x    frame= 6200 fps=194 q=-0.0 size=N/A time=00:04:18.59 bitrate=N/A speed=8.09x    frame= 6298 fps=194 q=-0.0 size=N/A time=00:04:22.67 bitrate=N/A speed=8.09x    frame= 6392 fps=194 q=-0.0 size=N/A time=00:04:26.59 bitrate=N/A speed=8.08x    frame= 6495 fps=194 q=-0.0 size=N/A time=00:04:30.89 bitrate=N/A speed=8.08x    frame= 6597 fps=194 q=-0.0 size=N/A time=00:04:35.14 bitrate=N/A speed=8.08x    frame= 6697 fps=194 q=-0.0 size=N/A time=00:04:39.32 bitrate=N/A speed=8.08x    frame= 6799 fps=194 q=-0.0 size=N/A time=00:04:43.57 bitrate=N/A speed=8.09x    frame= 6901 fps=194 q=-0.0 size=N/A time=00:04:47.82 bitrate=N/A speed=8.09x    frame= 7000 fps=194 q=-0.0 size=N/A time=00:04:51.95 bitrate=N/A speed=8.09x    frame= 7092 fps=194 q=-0.0 size=N/A time=00:04:55.79 bitrate=N/A speed=8.08x    frame= 7199 fps=194 q=-0.0 size=N/A time=00:05:00.25 bitrate=N/A speed=8.09x    frame= 7300 fps=194 q=-0.0 size=N/A time=00:05:04.47 bitrate=N/A speed=8.09x    frame= 7409 fps=194 q=-0.0 size=N/A time=00:05:09.01 bitrate=N/A speed= 8.1x    frame= 7508 fps=194 q=-0.0 size=N/A time=00:05:13.14 bitrate=N/A speed= 8.1x    frame= 7612 fps=194 q=-0.0 size=N/A time=00:05:17.48 bitrate=N/A speed= 8.1x    frame= 7700 fps=194 q=-0.0 size=N/A time=00:05:21.15 bitrate=N/A speed=8.09x    frame= 7816 fps=194 q=-0.0 size=N/A time=00:05:25.99 bitrate=N/A speed= 8.1x    frame= 7917 fps=194 q=-0.0 size=N/A time=00:05:30.20 bitrate=N/A speed= 8.1x    frame= 8018 fps=194 q=-0.0 size=N/A time=00:05:34.41 bitrate=N/A speed= 8.1x    frame= 8119 fps=194 q=-0.0 size=N/A time=00:05:38.62 bitrate=N/A speed= 8.1x    frame= 8221 fps=194 q=-0.0 size=N/A time=00:05:42.88 bitrate=N/A speed= 8.1x    frame= 8318 fps=194 q=-0.0 size=N/A time=00:05:46.92 bitrate=N/A speed= 8.1x    frame= 8421 fps=194 q=-0.0 size=N/A time=00:05:51.22 bitrate=N/A speed= 8.1x    frame= 8520 fps=194 q=-0.0 size=N/A time=00:05:55.35 bitrate=N/A speed= 8.1x    frame= 8618 fps=194 q=-0.0 size=N/A time=00:05:59.44 bitrate=N/A speed= 8.1x    frame= 8714 fps=194 q=-0.0 size=N/A time=00:06:03.44 bitrate=N/A speed=8.09x    frame= 8817 fps=194 q=-0.0 size=N/A time=00:06:07.74 bitrate=N/A speed= 8.1x    frame= 8921 fps=194 q=-0.0 size=N/A time=00:06:12.08 bitrate=N/A speed= 8.1x    frame= 9017 fps=194 q=-0.0 size=N/A time=00:06:16.08 bitrate=N/A speed= 8.1x    frame= 9116 fps=194 q=-0.0 size=N/A time=00:06:20.21 bitrate=N/A speed= 8.1x    frame= 9211 fps=194 q=-0.0 size=N/A time=00:06:24.17 bitrate=N/A speed=8.09x    frame= 9311 fps=194 q=-0.0 size=N/A time=00:06:28.34 bitrate=N/A speed=8.09x    frame= 9409 fps=194 q=-0.0 size=N/A time=00:06:32.43 bitrate=N/A speed=8.09x    frame= 9508 fps=194 q=-0.0 size=N/A time=00:06:36.56 bitrate=N/A speed=8.09x    frame= 9607 fps=194 q=-0.0 size=N/A time=00:06:40.69 bitrate=N/A speed=8.09x    frame= 9708 fps=194 q=-0.0 size=N/A time=00:06:44.90 bitrate=N/A speed=8.09x    frame= 9808 fps=194 q=-0.0 size=N/A time=00:06:49.07 bitrate=N/A speed=8.09x    frame= 9906 fps=194 q=-0.0 size=N/A time=00:06:53.16 bitrate=N/A speed=8.09x    frame=10005 fps=194 q=-0.0 size=N/A time=00:06:57.29 bitrate=N/A speed=8.09x    frame=10100 fps=194 q=-0.0 size=N/A time=00:07:01.25 bitrate=N/A speed=8.08x    frame=10194 fps=194 q=-0.0 size=N/A time=00:07:05.17 bitrate=N/A speed=8.08x    frame=10298 fps=194 q=-0.0 size=N/A time=00:07:09.51 bitrate=N/A speed=8.08x    frame=10403 fps=194 q=-0.0 size=N/A time=00:07:13.89 bitrate=N/A speed=8.09x    frame=10502 fps=194 q=-0.0 size=N/A time=00:07:18.02 bitrate=N/A speed=8.08x    frame=10593 fps=194 q=-0.0 size=N/A time=00:07:21.81 bitrate=N/A speed=8.08x    frame=10703 fps=194 q=-0.0 size=N/A time=00:07:26.40 bitrate=N/A speed=8.09x    frame=10795 fps=194 q=-0.0 size=N/A time=00:07:30.24 bitrate=N/A speed=8.08x    frame=10903 fps=194 q=-0.0 size=N/A time=00:07:34.74 bitrate=N/A speed=8.09x    frame=11002 fps=194 q=-0.0 size=N/A time=00:07:38.87 bitrate=N/A speed=8.09x    frame=11104 fps=194 q=-0.0 size=N/A time=00:07:43.12 bitrate=N/A speed=8.09x    frame=11203 fps=194 q=-0.0 size=N/A time=00:07:47.25 bitrate=N/A speed=8.09x    frame=11305 fps=194 q=-0.0 size=N/A time=00:07:51.51 bitrate=N/A speed=8.09x    frame=11402 fps=194 q=-0.0 size=N/A time=00:07:55.55 bitrate=N/A speed=8.09x    frame=11503 fps=194 q=-0.0 size=N/A time=00:07:59.77 bitrate=N/A speed=8.09x    frame=11602 fps=194 q=-0.0 size=N/A time=00:08:03.90 bitrate=N/A speed=8.09x    frame=11700 fps=194 q=-0.0 size=N/A time=00:08:07.98 bitrate=N/A speed=8.08x    frame=11800 fps=194 q=-0.0 size=N/A time=00:08:12.15 bitrate=N/A speed=8.08x    frame=11895 fps=194 q=-0.0 size=N/A time=00:08:16.12 bitrate=N/A speed=8.08x    frame=12000 fps=194 q=-0.0 size=N/A time=00:08:20.50 bitrate=N/A speed=8.08x    frame=12098 fps=194 q=-0.0 size=N/A time=00:08:24.58 bitrate=N/A speed=8.08x    frame=12194 fps=194 q=-0.0 size=N/A time=00:08:28.59 bitrate=N/A speed=8.08x    frame=12293 fps=194 q=-0.0 size=N/A time=00:08:32.72 bitrate=N/A speed=8.08x    frame=12393 fps=194 q=-0.0 size=N/A time=00:08:36.89 bitrate=N/A speed=8.08x    frame=12487 fps=194 q=-0.0 size=N/A time=00:08:40.81 bitrate=N/A speed=8.08x    frame=12595 fps=194 q=-0.0 size=N/A time=00:08:45.31 bitrate=N/A speed=8.08x    frame=12694 fps=194 q=-0.0 size=N/A time=00:08:49.44 bitrate=N/A speed=8.08x    frame=12794 fps=194 q=-0.0 size=N/A time=00:08:53.61 bitrate=N/A speed=8.08x    frame=12893 fps=194 q=-0.0 size=N/A time=00:08:57.74 bitrate=N/A speed=8.08x    frame=12992 fps=194 q=-0.0 size=N/A time=00:09:01.87 bitrate=N/A speed=8.08x    frame=13095 fps=194 q=-0.0 size=N/A time=00:09:06.17 bitrate=N/A speed=8.08x    frame=13187 fps=194 q=-0.0 size=N/A time=00:09:10.00 bitrate=N/A speed=8.08x    frame=13295 fps=194 q=-0.0 size=N/A time=00:09:14.51 bitrate=N/A speed=8.08x    frame=13394 fps=194 q=-0.0 size=N/A time=00:09:18.64 bitrate=N/A speed=8.08x    frame=13495 fps=194 q=-0.0 size=N/A time=00:09:22.85 bitrate=N/A speed=8.08x    frame=13593 fps=194 q=-0.0 size=N/A time=00:09:26.94 bitrate=N/A speed=8.08x    frame=13690 fps=194 q=-0.0 size=N/A time=00:09:30.98 bitrate=N/A speed=8.08x    frame=13781 fps=194 q=-0.0 size=N/A time=00:09:34.78 bitrate=N/A speed=8.07x    frame=13889 fps=194 q=-0.0 size=N/A time=00:09:39.28 bitrate=N/A speed=8.08x    frame=13981 fps=194 q=-0.0 size=N/A time=00:09:43.12 bitrate=N/A speed=8.07x    frame=14091 fps=194 q=-0.0 size=N/A time=00:09:47.71 bitrate=N/A speed=8.08x    frame=14187 fps=194 q=-0.0 size=N/A time=00:09:51.71 bitrate=N/A speed=8.08x    frame=14286 fps=194 q=-0.0 size=N/A time=00:09:55.84 bitrate=N/A speed=8.08x    frame=14389 fps=194 q=-0.0 size=N/A time=00:10:00.14 bitrate=N/A speed=8.08x    frame=14483 fps=194 q=-0.0 size=N/A time=00:10:04.06 bitrate=N/A speed=8.08x    frame=14589 fps=194 q=-0.0 size=N/A time=00:10:08.48 bitrate=N/A speed=8.08x    frame=14684 fps=194 q=-0.0 size=N/A time=00:10:12.44 bitrate=N/A speed=8.08x    frame=14792 fps=194 q=-0.0 size=N/A time=00:10:16.94 bitrate=N/A speed=8.08x    frame=14890 fps=194 q=-0.0 size=N/A time=00:10:21.03 bitrate=N/A speed=8.08x    frame=14987 fps=194 q=-0.0 size=N/A time=00:10:25.08 bitrate=N/A speed=8.08x    frame=15094 fps=194 q=-0.0 size=N/A time=00:10:29.54 bitrate=N/A speed=8.08x    frame=15193 fps=194 q=-0.0 size=N/A time=00:10:33.67 bitrate=N/A speed=8.08x    frame=15293 fps=194 q=-0.0 size=N/A time=00:10:37.84 bitrate=N/A speed=8.08x    frame=15388 fps=194 q=-0.0 size=N/A time=00:10:41.80 bitrate=N/A speed=8.08x    frame=15494 fps=194 q=-0.0 size=N/A time=00:10:46.22 bitrate=N/A speed=8.08x    frame=15597 fps=194 q=-0.0 size=N/A time=00:10:50.52 bitrate=N/A speed=8.08x    frame=15699 fps=194 q=-0.0 size=N/A time=00:10:54.77 bitrate=N/A speed=8.08x    frame=15802 fps=194 q=-0.0 size=N/A time=00:10:59.07 bitrate=N/A speed=8.09x    frame=15904 fps=194 q=-0.0 size=N/A time=00:11:03.32 bitrate=N/A speed=8.09x    frame=16006 fps=194 q=-0.0 size=N/A time=00:11:07.58 bitrate=N/A speed=8.09x    frame=16104 fps=194 q=-0.0 size=N/A time=00:11:11.67 bitrate=N/A speed=8.09x    frame=16211 fps=194 q=-0.0 size=N/A time=00:11:16.13 bitrate=N/A speed=8.09x    frame=16305 fps=194 q=-0.0 size=N/A time=00:11:20.05 bitrate=N/A speed=8.09x    frame=16410 fps=194 q=-0.0 size=N/A time=00:11:24.43 bitrate=N/A speed=8.09x    frame=16497 fps=194 q=-0.0 size=N/A time=00:11:28.06 bitrate=N/A speed=8.08x    frame=16613 fps=194 q=-0.0 size=N/A time=00:11:32.90 bitrate=N/A speed=8.09x    frame=16707 fps=194 q=-0.0 size=N/A time=00:11:36.82 bitrate=N/A speed=8.09x    frame=16813 fps=194 q=-0.0 size=N/A time=00:11:41.24 bitrate=N/A speed=8.09x    frame=16900 fps=194 q=-0.0 size=N/A time=00:11:44.87 bitrate=N/A speed=8.08x    frame=17014 fps=194 q=-0.0 size=N/A time=00:11:49.62 bitrate=N/A speed=8.09x    frame=17117 fps=194 q=-0.0 size=N/A time=00:11:53.92 bitrate=N/A speed=8.09x    frame=17213 fps=194 q=-0.0 size=N/A time=00:11:57.92 bitrate=N/A speed=8.09x    frame=17315 fps=194 q=-0.0 size=N/A time=00:12:02.17 bitrate=N/A speed=8.09x    frame=17419 fps=194 q=-0.0 size=N/A time=00:12:06.51 bitrate=N/A speed=8.09x    frame=17520 fps=194 q=-0.0 size=N/A time=00:12:10.73 bitrate=N/A speed=8.09x    frame=17614 fps=194 q=-0.0 size=N/A time=00:12:14.65 bitrate=N/A speed=8.09x    frame=17712 fps=194 q=-0.0 size=N/A time=00:12:18.73 bitrate=N/A speed=8.09x    frame=17813 fps=194 q=-0.0 size=N/A time=00:12:22.95 bitrate=N/A speed=8.09x    frame=17916 fps=194 q=-0.0 size=N/A time=00:12:27.24 bitrate=N/A speed=8.09x    frame=18006 fps=194 q=-0.0 size=N/A time=00:12:31.00 bitrate=N/A speed=8.09x    frame=18119 fps=194 q=-0.0 size=N/A time=00:12:35.71 bitrate=N/A speed=8.09x    frame=18220 fps=194 q=-0.0 size=N/A time=00:12:39.92 bitrate=N/A speed=8.09x    frame=18322 fps=194 q=-0.0 size=N/A time=00:12:44.18 bitrate=N/A speed=8.09x    frame=18423 fps=194 q=-0.0 size=N/A time=00:12:48.39 bitrate=N/A speed= 8.1x    frame=18524 fps=194 q=-0.0 size=N/A time=00:12:52.60 bitrate=N/A speed= 8.1x    frame=18627 fps=194 q=-0.0 size=N/A time=00:12:56.90 bitrate=N/A speed= 8.1x    frame=18722 fps=194 q=-0.0 size=N/A time=00:13:00.86 bitrate=N/A speed=8.09x    frame=18831 fps=194 q=-0.0 size=N/A time=00:13:05.40 bitrate=N/A speed= 8.1x    frame=18933 fps=194 q=-0.0 size=N/A time=00:13:09.66 bitrate=N/A speed= 8.1x    frame=19026 fps=194 q=-0.0 size=N/A time=00:13:13.54 bitrate=N/A speed= 8.1x    frame=19121 fps=194 q=-0.0 size=N/A time=00:13:17.50 bitrate=N/A speed=8.09x    frame=19233 fps=194 q=-0.0 size=N/A time=00:13:22.17 bitrate=N/A speed= 8.1x    frame=19330 fps=194 q=-0.0 size=N/A time=00:13:26.22 bitrate=N/A speed= 8.1x    frame=19437 fps=194 q=-0.0 size=N/A time=00:13:30.68 bitrate=N/A speed= 8.1x    frame=19521 fps=194 q=-0.0 size=N/A time=00:13:34.18 bitrate=N/A speed=8.09x    frame=19636 fps=194 q=-0.0 size=N/A time=00:13:38.98 bitrate=N/A speed= 8.1x    frame=19728 fps=194 q=-0.0 size=N/A time=00:13:42.82 bitrate=N/A speed= 8.1x    frame=19827 fps=194 q=-0.0 size=N/A time=00:13:46.95 bitrate=N/A speed= 8.1x    frame=19928 fps=194 q=-0.0 size=N/A time=00:13:51.16 bitrate=N/A speed= 8.1x    frame=20024 fps=194 q=-0.0 size=N/A time=00:13:55.16 bitrate=N/A speed=8.09x    frame=20132 fps=194 q=-0.0 size=N/A time=00:13:59.67 bitrate=N/A speed= 8.1x    frame=20231 fps=194 q=-0.0 size=N/A time=00:14:03.80 bitrate=N/A speed= 8.1x    frame=20335 fps=194 q=-0.0 size=N/A time=00:14:08.13 bitrate=N/A speed= 8.1x    frame=20435 fps=194 q=-0.0 size=N/A time=00:14:12.30 bitrate=N/A speed= 8.1x    frame=20537 fps=194 q=-0.0 size=N/A time=00:14:16.56 bitrate=N/A speed= 8.1x    frame=20622 fps=194 q=-0.0 size=N/A time=00:14:20.10 bitrate=N/A speed=8.09x    frame=20735 fps=194 q=-0.0 size=N/A time=00:14:24.82 bitrate=N/A speed= 8.1x    frame=20837 fps=194 q=-0.0 size=N/A time=00:14:29.07 bitrate=N/A speed= 8.1x    frame=20929 fps=194 q=-0.0 size=N/A time=00:14:32.91 bitrate=N/A speed= 8.1x    frame=21037 fps=194 q=-0.0 size=N/A time=00:14:37.41 bitrate=N/A speed= 8.1x    frame=21135 fps=194 q=-0.0 size=N/A time=00:14:41.50 bitrate=N/A speed= 8.1x    frame=21238 fps=194 q=-0.0 size=N/A time=00:14:45.80 bitrate=N/A speed= 8.1x    frame=21333 fps=194 q=-0.0 size=N/A time=00:14:49.76 bitrate=N/A speed= 8.1x    frame=21437 fps=194 q=-0.0 size=N/A time=00:14:54.10 bitrate=N/A speed= 8.1x    frame=21535 fps=194 q=-0.0 size=N/A time=00:14:58.18 bitrate=N/A speed= 8.1x    frame=21625 fps=194 q=-0.0 size=N/A time=00:15:01.94 bitrate=N/A speed=8.09x    frame=21736 fps=194 q=-0.0 size=N/A time=00:15:06.57 bitrate=N/A speed= 8.1x    frame=21838 fps=194 q=-0.0 size=N/A time=00:15:10.82 bitrate=N/A speed= 8.1x    frame=21937 fps=194 q=-0.0 size=N/A time=00:15:14.95 bitrate=N/A speed= 8.1x    frame=22039 fps=194 q=-0.0 size=N/A time=00:15:19.20 bitrate=N/A speed= 8.1x    frame=22128 fps=194 q=-0.0 size=N/A time=00:15:22.92 bitrate=N/A speed=8.09x    frame=22240 fps=194 q=-0.0 size=N/A time=00:15:27.59 bitrate=N/A speed= 8.1x    frame=22341 fps=194 q=-0.0 size=N/A time=00:15:31.80 bitrate=N/A speed= 8.1x    frame=22441 fps=194 q=-0.0 size=N/A time=00:15:35.97 bitrate=N/A speed= 8.1x    frame=22541 fps=194 q=-0.0 size=N/A time=00:15:40.14 bitrate=N/A speed= 8.1x    frame=22645 fps=194 q=-0.0 size=N/A time=00:15:44.48 bitrate=N/A speed= 8.1x    frame=22743 fps=194 q=-0.0 size=N/A time=00:15:48.57 bitrate=N/A speed= 8.1x    frame=22844 fps=194 q=-0.0 size=N/A time=00:15:52.78 bitrate=N/A speed= 8.1x    frame=22944 fps=194 q=-0.0 size=N/A time=00:15:56.95 bitrate=N/A speed= 8.1x    frame=23044 fps=194 q=-0.0 size=N/A time=00:16:01.12 bitrate=N/A speed= 8.1x    frame=23143 fps=194 q=-0.0 size=N/A time=00:16:05.25 bitrate=N/A speed= 8.1x    frame=23247 fps=194 q=-0.0 size=N/A time=00:16:09.59 bitrate=N/A speed= 8.1x    frame=23346 fps=194 q=-0.0 size=N/A time=00:16:13.72 bitrate=N/A speed= 8.1x    frame=23448 fps=194 q=-0.0 size=N/A time=00:16:17.97 bitrate=N/A speed= 8.1x    frame=23540 fps=194 q=-0.0 size=N/A time=00:16:21.81 bitrate=N/A speed= 8.1x    frame=23651 fps=194 q=-0.0 size=N/A time=00:16:26.44 bitrate=N/A speed= 8.1x    frame=23751 fps=194 q=-0.0 size=N/A time=00:16:30.61 bitrate=N/A speed= 8.1x    frame=23853 fps=194 q=-0.0 size=N/A time=00:16:34.86 bitrate=N/A speed= 8.1x    frame=23945 fps=194 q=-0.0 size=N/A time=00:16:38.70 bitrate=N/A speed= 8.1x    frame=24051 fps=194 q=-0.0 size=N/A time=00:16:43.12 bitrate=N/A speed= 8.1x    frame=24153 fps=194 q=-0.0 size=N/A time=00:16:47.38 bitrate=N/A speed= 8.1x    frame=24254 fps=194 q=-0.0 size=N/A time=00:16:51.59 bitrate=N/A speed= 8.1x    frame=24352 fps=194 q=-0.0 size=N/A time=00:16:55.68 bitrate=N/A speed= 8.1x    frame=24453 fps=194 q=-0.0 size=N/A time=00:16:59.89 bitrate=N/A speed= 8.1x    frame=24556 fps=194 q=-0.0 size=N/A time=00:17:04.18 bitrate=N/A speed= 8.1x    frame=24651 fps=194 q=-0.0 size=N/A time=00:17:08.15 bitrate=N/A speed= 8.1x    frame=24750 fps=194 q=-0.0 size=N/A time=00:17:12.28 bitrate=N/A speed= 8.1x    frame=24864 fps=194 q=-0.0 size=N/A time=00:17:17.03 bitrate=N/A speed= 8.1x    frame=24961 fps=194 q=-0.0 size=N/A time=00:17:21.08 bitrate=N/A speed= 8.1x    frame=25061 fps=194 q=-0.0 size=N/A time=00:17:25.25 bitrate=N/A speed= 8.1x    frame=25156 fps=194 q=-0.0 size=N/A time=00:17:29.21 bitrate=N/A speed= 8.1x    frame=25254 fps=194 q=-0.0 size=N/A time=00:17:33.30 bitrate=N/A speed= 8.1x    frame=25354 fps=194 q=-0.0 size=N/A time=00:17:37.47 bitrate=N/A speed= 8.1x    frame=25453 fps=194 q=-0.0 size=N/A time=00:17:41.60 bitrate=N/A speed= 8.1x    frame=25554 fps=194 q=-0.0 size=N/A time=00:17:45.81 bitrate=N/A speed= 8.1x    frame=25653 fps=194 q=-0.0 size=N/A time=00:17:49.94 bitrate=N/A speed= 8.1x    frame=25755 fps=194 q=-0.0 size=N/A time=00:17:54.19 bitrate=N/A speed= 8.1x    frame=25855 fps=194 q=-0.0 size=N/A time=00:17:58.36 bitrate=N/A speed= 8.1x    frame=25947 fps=194 q=-0.0 size=N/A time=00:18:02.20 bitrate=N/A speed= 8.1x    frame=26058 fps=194 q=-0.0 size=N/A time=00:18:06.83 bitrate=N/A speed= 8.1x    frame=26154 fps=194 q=-0.0 size=N/A time=00:18:10.83 bitrate=N/A speed= 8.1x    frame=26248 fps=194 q=-0.0 size=N/A time=00:18:14.76 bitrate=N/A speed= 8.1x    frame=26356 fps=194 q=-0.0 size=N/A time=00:18:19.26 bitrate=N/A speed= 8.1x    frame=26458 fps=194 q=-0.0 size=N/A time=00:18:23.51 bitrate=N/A speed= 8.1x    frame=26554 fps=194 q=-0.0 size=N/A time=00:18:27.52 bitrate=N/A speed= 8.1x    frame=26655 fps=194 q=-0.0 size=N/A time=00:18:31.73 bitrate=N/A speed= 8.1x    frame=26751 fps=194 q=-0.0 size=N/A time=00:18:35.73 bitrate=N/A speed= 8.1x    frame=26850 fps=194 q=-0.0 size=N/A time=00:18:39.86 bitrate=N/A speed= 8.1x    frame=26947 fps=194 q=-0.0 size=N/A time=00:18:43.91 bitrate=N/A speed= 8.1x    frame=27047 fps=194 q=-0.0 size=N/A time=00:18:48.08 bitrate=N/A speed= 8.1x    frame=27146 fps=194 q=-0.0 size=N/A time=00:18:52.21 bitrate=N/A speed= 8.1x    frame=27241 fps=194 q=-0.0 size=N/A time=00:18:56.17 bitrate=N/A speed= 8.1x    frame=27346 fps=194 q=-0.0 size=N/A time=00:19:00.55 bitrate=N/A speed= 8.1x    frame=27448 fps=194 q=-0.0 size=N/A time=00:19:04.81 bitrate=N/A speed= 8.1x    frame=27546 fps=194 q=-0.0 size=N/A time=00:19:08.89 bitrate=N/A speed= 8.1x    frame=27653 fps=194 q=-0.0 size=N/A time=00:19:13.36 bitrate=N/A speed= 8.1x    frame=27755 fps=194 q=-0.0 size=N/A time=00:19:17.61 bitrate=N/A speed= 8.1x    frame=27856 fps=194 q=-0.0 size=N/A time=00:19:21.82 bitrate=N/A speed= 8.1x    frame=27955 fps=194 q=-0.0 size=N/A time=00:19:25.95 bitrate=N/A speed= 8.1x    frame=28047 fps=194 q=-0.0 size=N/A time=00:19:29.79 bitrate=N/A speed= 8.1x    frame=28156 fps=194 q=-0.0 size=N/A time=00:19:34.33 bitrate=N/A speed= 8.1x    frame=28257 fps=194 q=-0.0 size=N/A time=00:19:38.55 bitrate=N/A speed= 8.1x    frame=28359 fps=194 q=-0.0 size=N/A time=00:19:42.80 bitrate=N/A speed= 8.1x    frame=28461 fps=194 q=-0.0 size=N/A time=00:19:47.06 bitrate=N/A speed= 8.1x    frame=28561 fps=194 q=-0.0 size=N/A time=00:19:51.23 bitrate=N/A speed= 8.1x    frame=28670 fps=194 q=-0.0 size=N/A time=00:19:55.77 bitrate=N/A speed= 8.1x    frame=28772 fps=194 q=-0.0 size=N/A time=00:20:00.03 bitrate=N/A speed= 8.1x    frame=28874 fps=194 q=-0.0 size=N/A time=00:20:04.28 bitrate=N/A speed= 8.1x    frame=28972 fps=194 q=-0.0 size=N/A time=00:20:08.37 bitrate=N/A speed= 8.1x    frame=29068 fps=194 q=-0.0 size=N/A time=00:20:12.37 bitrate=N/A speed= 8.1x    frame=29173 fps=194 q=-0.0 size=N/A time=00:20:16.75 bitrate=N/A speed= 8.1x    frame=29276 fps=194 q=-0.0 size=N/A time=00:20:21.05 bitrate=N/A speed= 8.1x    frame=29377 fps=194 q=-0.0 size=N/A time=00:20:25.26 bitrate=N/A speed=8.11x    frame=29475 fps=194 q=-0.0 size=N/A time=00:20:29.35 bitrate=N/A speed= 8.1x    frame=29569 fps=194 q=-0.0 size=N/A time=00:20:33.27 bitrate=N/A speed= 8.1x    frame=29670 fps=194 q=-0.0 size=N/A time=00:20:37.48 bitrate=N/A speed= 8.1x    frame=29770 fps=194 q=-0.0 size=N/A time=00:20:41.65 bitrate=N/A speed= 8.1x    frame=29861 fps=194 q=-0.0 size=N/A time=00:20:45.45 bitrate=N/A speed= 8.1x    frame=29971 fps=194 q=-0.0 size=N/A time=00:20:50.04 bitrate=N/A speed= 8.1x    frame=30064 fps=194 q=-0.0 size=N/A time=00:20:53.91 bitrate=N/A speed= 8.1x    frame=30181 fps=194 q=-0.0 size=N/A time=00:20:58.79 bitrate=N/A speed=8.11x    frame=30279 fps=194 q=-0.0 size=N/A time=00:21:02.88 bitrate=N/A speed=8.11x    frame=30383 fps=194 q=-0.0 size=N/A time=00:21:07.22 bitrate=N/A speed=8.11x    frame=30482 fps=194 q=-0.0 size=N/A time=00:21:11.35 bitrate=N/A speed=8.11x    frame=30582 fps=194 q=-0.0 size=N/A time=00:21:15.52 bitrate=N/A speed=8.11x    frame=30677 fps=194 q=-0.0 size=N/A time=00:21:19.48 bitrate=N/A speed= 8.1x    frame=30781 fps=194 q=-0.0 size=N/A time=00:21:23.82 bitrate=N/A speed=8.11x    frame=30882 fps=194 q=-0.0 size=N/A time=00:21:28.03 bitrate=N/A speed=8.11x    frame=30974 fps=194 q=-0.0 size=N/A time=00:21:31.87 bitrate=N/A speed= 8.1x    frame=31085 fps=194 q=-0.0 size=N/A time=00:21:36.50 bitrate=N/A speed=8.11x    frame=31190 fps=194 q=-0.0 size=N/A time=00:21:40.88 bitrate=N/A speed=8.11x    frame=31290 fps=194 q=-0.0 size=N/A time=00:21:45.05 bitrate=N/A speed=8.11x    frame=31381 fps=194 q=-0.0 size=N/A time=00:21:48.84 bitrate=N/A speed= 8.1x    frame=31483 fps=194 q=-0.0 size=N/A time=00:21:53.10 bitrate=N/A speed=8.11x    frame=31585 fps=194 q=-0.0 size=N/A time=00:21:57.35 bitrate=N/A speed=8.11x    frame=31685 fps=194 q=-0.0 size=N/A time=00:22:01.52 bitrate=N/A speed=8.11x    frame=31784 fps=194 q=-0.0 size=N/A time=00:22:05.65 bitrate=N/A speed=8.11x    frame=31886 fps=194 q=-0.0 size=N/A time=00:22:09.91 bitrate=N/A speed=8.11x    frame=31984 fps=194 q=-0.0 size=N/A time=00:22:13.99 bitrate=N/A speed=8.11x    frame=32084 fps=194 q=-0.0 size=N/A time=00:22:18.17 bitrate=N/A speed= 8.1x    frame=32179 fps=194 q=-0.0 size=N/A time=00:22:22.13 bitrate=N/A speed= 8.1x    frame=32273 fps=194 q=-0.0 size=N/A time=00:22:26.05 bitrate=N/A speed= 8.1x    frame=32374 fps=194 q=-0.0 size=N/A time=00:22:30.26 bitrate=N/A speed= 8.1x    frame=32471 fps=194 q=-0.0 size=N/A time=00:22:34.31 bitrate=N/A speed= 8.1x    frame=32568 fps=194 q=-0.0 size=N/A time=00:22:38.35 bitrate=N/A speed= 8.1x    frame=32666 fps=194 q=-0.0 size=N/A time=00:22:42.44 bitrate=N/A speed= 8.1x    frame=32763 fps=194 q=-0.0 size=N/A time=00:22:46.49 bitrate=N/A speed= 8.1x    frame=32868 fps=194 q=-0.0 size=N/A time=00:22:50.86 bitrate=N/A speed= 8.1x    frame=32964 fps=194 q=-0.0 size=N/A time=00:22:54.87 bitrate=N/A speed= 8.1x    frame=33063 fps=194 q=-0.0 size=N/A time=00:22:59.00 bitrate=N/A speed= 8.1x    frame=33158 fps=194 q=-0.0 size=N/A time=00:23:02.96 bitrate=N/A speed= 8.1x    frame=33257 fps=194 q=-0.0 size=N/A time=00:23:07.09 bitrate=N/A speed= 8.1x    frame=33341 fps=194 q=-0.0 size=N/A time=00:23:10.59 bitrate=N/A speed=8.09x    frame=33453 fps=194 q=-0.0 size=N/A time=00:23:15.26 bitrate=N/A speed= 8.1x    frame=33552 fps=194 q=-0.0 size=N/A time=00:23:19.39 bitrate=N/A speed= 8.1x    frame=33640 fps=194 q=-0.0 size=N/A time=00:23:23.06 bitrate=N/A speed=8.09x    frame=33753 fps=194 q=-0.0 size=N/A time=00:23:27.78 bitrate=N/A speed= 8.1x    frame=33856 fps=194 q=-0.0 size=N/A time=00:23:32.07 bitrate=N/A speed= 8.1x    frame=33961 fps=194 q=-0.0 size=N/A time=00:23:36.45 bitrate=N/A speed= 8.1x    [Parsed_ssim_10 @ 000001536bb6c600] SSIM Y:0.990915 (20.416566) U:0.992770 (21.408405) V:0.993007 (21.553526) All:0.991573 (20.743043)
[out#0/null @ 000001536b0ded40] video:14629KiB audio:266636KiB subtitle:0KiB other streams:0KiB global headers:0KiB muxing overhead: unknown
frame=34046 fps=194 q=-0.0 Lsize=N/A time=00:23:40.00 bitrate=N/A speed= 8.1x    
